<svg width="45" height="39" viewBox="0 0 45 39" fill="none" xmlns="http://www.w3.org/2000/svg">
<g clip-path="url(#clip0_8_1960)">
<path d="M41.0735 25.3929C41.2177 25.5084 41.3125 25.6081 41.4544 25.7265C41.5404 25.7982 41.541 25.7982 41.6254 25.72C41.684 25.6654 41.741 25.6083 41.8012 25.5548C42.0439 25.3366 42.3703 25.3472 42.5962 25.5847C42.6861 25.6799 42.7709 25.7805 42.8501 25.8859C43.0454 26.1446 43.0259 26.4828 42.8054 26.7183C42.7434 26.7843 42.6778 26.8468 42.6108 26.9071C42.5552 26.9572 42.5533 27.0059 42.5928 27.0687C42.6743 27.1981 42.7533 27.3291 42.8299 27.4618C42.927 27.6297 43.0135 27.8046 43.0955 27.9811C43.1734 28.1493 43.1734 28.1482 43.3355 28.094C43.4138 28.0652 43.4937 28.0414 43.5746 28.0224C43.8383 27.9685 44.0883 28.1041 44.2008 28.3653C44.269 28.5263 44.32 28.695 44.3528 28.8682C44.4013 29.115 44.2595 29.3888 44.0329 29.5104C43.945 29.5571 43.8486 29.5775 43.7568 29.6124C43.6458 29.6548 43.6361 29.6632 43.6543 29.7786C43.7129 30.1421 43.7542 30.5074 43.7568 30.8767C43.7576 30.9573 43.7861 31.0033 43.8656 31.0103C43.9335 31.0162 44.0009 31.0296 44.0688 31.0371C44.3386 31.0668 44.5222 31.2097 44.6022 31.4915C44.6091 31.516 44.6268 32.024 44.6032 32.1616C44.5514 32.4656 44.3287 32.6822 44.0358 32.6945C43.9726 32.6976 43.9093 32.6933 43.847 32.6818C43.7315 32.6595 43.655 32.7111 43.6272 32.8295C43.5585 33.1209 43.466 33.4039 43.3668 33.6847C43.3375 33.7659 43.3544 33.8371 43.418 33.8942C43.4512 33.9241 43.5791 34.0706 43.5998 34.1193C43.6473 34.2312 43.442 34.057 43.3947 34.028C43.286 33.9616 41.9559 33.1807 41.4607 32.9005C41.4962 32.6222 41.6241 32.2661 41.6757 31.9916C41.9382 30.5931 41.6666 29.3174 40.9066 28.1527C40.2744 27.1841 39.4089 26.5645 38.3459 26.2571C37.4103 25.9865 36.4831 26.0415 35.5732 26.3948C34.8206 26.6871 33.9965 27.1663 33.5444 27.9208C33.4925 27.9822 33.468 27.9752 33.3861 27.9364C33.1032 27.7864 31.9943 27.0186 31.5435 26.7396C31.3436 26.5263 31.2115 26.1774 31.3615 25.9198C31.4686 25.736 31.6125 25.5871 31.7669 25.4532C31.9839 25.2653 32.2984 25.2706 32.5287 25.4473C32.8146 25.6664 32.8143 25.6654 33.0921 25.43C33.237 25.3069 33.3915 25.1978 33.5438 25.0854C33.6854 24.9809 33.696 24.9388 33.6295 24.7748C33.4484 24.3279 33.5646 23.9882 33.9729 23.7672C34.0808 23.7062 34.1936 23.6554 34.3099 23.6154C34.6215 23.5145 34.9088 23.6327 35.0782 23.928C35.2549 24.236 35.254 24.2355 35.5866 24.1542C35.7624 24.111 35.9407 24.0804 36.1181 24.046C36.2955 24.0116 36.3225 23.9818 36.3326 23.7951C36.3366 23.7018 36.35 23.6092 36.3723 23.5188C36.4192 23.3384 36.5042 23.18 36.68 23.109C37.0153 22.9731 37.3539 22.9471 37.683 23.1256C37.8771 23.231 37.9676 23.4121 37.9701 23.6468C37.9738 23.9985 37.9761 24.0014 38.2992 24.0571C38.5115 24.0937 38.7195 24.1482 38.9283 24.2006C39.0867 24.2403 39.1276 24.2247 39.1894 24.0624C39.3456 23.6516 39.734 23.442 40.1921 23.6812C40.3221 23.7491 40.4583 23.7987 40.5719 23.9081C40.8009 24.1288 40.817 24.4546 40.7228 24.6923C40.7094 24.7258 40.6935 24.7577 40.6804 24.7914C40.6177 24.9564 40.611 25.053 40.611 25.053C40.611 25.053 40.9315 25.279 41.0735 25.3929Z" fill="#5F5F5F"/>
<path d="M41.3868 32.7655C41.52 32.901 43.2994 33.9359 43.4526 34.0337C43.4983 34.0399 43.5335 34.072 43.5747 34.0898L43.5725 34.0882C43.6042 34.1186 43.6346 34.1508 43.6633 34.1845L43.6617 34.1823C43.8026 34.3921 43.8017 34.6157 43.7203 34.8473C43.6685 34.9703 43.6063 35.088 43.5344 35.199C43.3669 35.4672 43.0578 35.5513 42.786 35.4058C42.7034 35.3615 42.6232 35.3123 42.5447 35.2593C42.4877 35.2214 42.4484 35.2316 42.4084 35.2878C42.1906 35.594 41.9486 35.8798 41.685 36.1421C41.6318 36.1948 41.6255 36.2409 41.6703 36.302C41.7217 36.371 41.7696 36.4432 41.8158 36.5163C42.0036 36.8124 41.9531 37.154 41.6875 37.3734C41.595 37.4496 41.5007 37.5236 41.4026 37.5915C41.1389 37.7736 40.8298 37.7223 40.6289 37.4647C40.5734 37.3924 40.5213 37.3172 40.473 37.2392C40.4303 37.1709 40.3873 37.1554 40.3157 37.1988C40.0142 37.3813 39.6958 37.5253 39.3707 37.6528C39.2525 37.6995 39.2535 37.7013 39.2766 37.8326C39.2848 37.8784 39.2913 37.9247 39.2996 37.9704C39.3752 38.3556 39.2889 38.5643 38.972 38.7619C38.8901 38.8102 38.7962 38.8027 38.7083 38.8273C38.5554 38.8663 38.4006 38.8632 38.2448 38.8549H38.244C38.193 38.8281 38.1429 38.7993 38.093 38.7701C37.9431 38.6372 37.8761 38.4622 37.8373 38.2615C37.7846 37.9897 37.8167 38.0338 37.5812 38.0455C37.2693 38.0611 36.9568 38.0597 36.645 38.0413C36.524 38.0341 36.5237 38.0336 36.4959 38.1529C36.483 38.2083 36.4683 38.2635 36.4604 38.3199C36.4099 38.6758 36.1401 38.9433 35.7103 38.8561C35.6051 38.8346 35.5009 38.8058 35.3981 38.7736C35.1042 38.6818 34.9342 38.3804 34.9931 38.0601C35.0078 37.9788 35.0256 37.8979 35.0406 37.8164C35.0608 37.7056 35.0595 37.6998 34.9549 37.6581C34.7539 37.5778 34.5537 37.4957 34.3603 37.3966C34.2461 37.338 34.1331 37.2768 34.0204 37.2149C33.9032 37.1508 33.904 37.1499 33.8221 37.2666C33.7781 37.329 33.7371 37.3935 33.6915 37.4536C33.4911 37.7207 33.1749 37.7768 32.9078 37.59C32.806 37.5188 32.7068 37.4426 32.6113 37.3622C32.3675 37.1564 32.3151 36.8188 32.4825 36.5398C32.5323 36.4569 32.5877 36.3776 32.6437 36.2992C32.6825 36.2448 32.685 36.2013 32.635 36.1513C32.3679 35.8852 32.1228 35.5952 31.9025 35.2844C31.8607 35.2252 31.8196 35.2255 31.7654 35.2616C31.6993 35.3057 31.6309 35.3461 31.5623 35.3863C31.2546 35.5644 30.9341 35.4765 30.7534 35.1563C30.6888 35.0416 30.6097 34.9364 30.5653 34.8077C30.4551 34.489 30.548 34.1937 30.8231 34.016C30.8817 33.9783 30.9415 33.9434 30.999 33.9056C31.1005 33.8395 31.1031 33.8376 31.0583 33.7221C30.9652 33.4824 30.8852 33.2372 30.8186 32.9877C30.7893 32.8786 30.7615 32.7676 30.7371 32.6567C30.7196 32.5757 30.6797 32.5443 30.6013 32.5618C30.5389 32.574 30.476 32.5828 30.4128 32.5883C30.0406 32.63 29.7648 32.393 29.7259 31.9983C29.7152 31.8892 29.7038 31.7815 29.6966 31.6729C29.6866 31.5157 29.7338 31.3605 29.8283 31.2392C29.9228 31.1179 30.0575 31.0399 30.2046 31.0212C30.2868 31.0104 30.3695 31.0036 30.4513 30.99C30.558 30.9713 30.5615 30.969 30.5631 30.8506C30.5679 30.5913 30.5865 30.3325 30.6188 30.0754C30.6322 29.9624 30.6678 29.8526 30.6601 29.7368C30.652 29.6576 30.6204 29.6085 30.5606 29.5838C30.5196 29.5711 30.5099 29.5657 30.4488 29.5495C30.3284 29.5183 30.2191 29.4628 30.1319 29.369" fill="#414141"/>
<path d="M30.6658 29.8072C30.6796 29.7279 30.6475 29.6085 30.5709 29.5858C30.5051 29.5661 30.3999 29.5242 30.3346 29.5033C30.0748 29.42 29.9119 29.202 29.8833 28.9091C29.8504 28.7845 29.9537 28.3812 30.0005 28.2504C30.1054 27.9623 30.3626 27.7943 30.6524 27.8409C30.7149 27.8506 30.7764 27.8675 30.8355 27.8914C30.9449 27.9366 31.0292 27.901 31.0775 27.7904C31.1968 27.518 31.3752 27.2481 31.49 26.974C31.601 26.7091 31.5223 26.731 31.5612 26.7402C31.6561 26.8272 33.0416 27.5437 33.4784 27.9183C33.1939 28.2456 32.5618 29.7276 32.5355 30.2233" fill="#414141"/>
<path d="M33.4943 27.8949C34.3787 26.8781 35.0117 26.4416 35.8847 26.1777C36.416 26.0159 36.9704 25.9571 37.5212 26.0041C38.4482 26.0835 39.2854 26.4277 40.0225 27.0362C40.6725 27.5731 41.1459 28.2532 41.4688 29.0551C41.6664 29.5457 41.7708 30.0584 41.8195 30.5899C41.8894 31.3509 41.7362 32.2011 41.4906 32.9105C41.441 32.9572 40.5364 32.2987 40.4396 32.1704C40.4174 32.1012 40.4448 32.0378 40.4614 31.9736C40.5503 31.627 40.6079 31.275 40.5977 30.9148C40.549 29.184 39.4402 27.7564 37.9068 27.4076C36.7752 27.1502 35.5753 27.4099 34.4769 28.5972C34.4492 28.6138 34.4406 28.5781 34.2541 28.4414C33.941 28.2388 33.7868 28.1118 33.5729 27.9739C33.4503 27.8979 33.4565 27.9388 33.4943 27.8949Z" fill="#414141"/>
<path d="M41.5087 32.8605C41.4793 32.9104 41.4527 32.9621 41.429 33.0154C41.1593 33.7068 40.7273 34.2744 40.2011 34.7551C39.5125 35.3846 38.7138 35.7771 37.807 35.9032C37.5849 35.9343 37.3622 35.9682 37.1376 35.9607C36.4884 35.9387 35.8609 35.8115 35.2614 35.5338C34.8811 35.3566 34.5252 35.1254 34.2032 34.8466C33.702 34.4154 33.2948 33.8973 32.9958 33.2833C32.7211 32.7176 32.563 32.1194 32.4959 31.4889C32.4373 30.9462 32.4833 30.4136 32.5901 29.8824C32.7123 29.2763 32.9403 28.7178 33.2585 28.2003C33.3038 28.1267 33.4355 27.9597 33.4782 27.9178C33.7094 28.0456 34.3406 28.4887 34.4418 28.585C34.5056 28.6737 34.3878 28.7904 34.3513 28.8473C34.1573 29.1489 33.9975 29.4672 33.8948 29.8171C33.5367 31.0359 33.7008 32.1702 34.4222 33.1899C35.0241 34.0408 35.8426 34.5072 36.8434 34.6141C38.2693 34.7664 39.7326 33.9054 40.3348 32.3857C40.368 32.3018 40.3597 32.1694 40.495 32.1628C40.5821 32.2691 41.4065 32.8008 41.5087 32.8605Z" fill="#5F5F5F"/>
<path d="M40.495 32.163C40.3815 32.4726 40.2546 32.7745 40.0766 33.05C39.5128 33.9227 38.7434 34.4642 37.7637 34.6507C36.7713 34.8396 35.863 34.604 35.0554 33.9691C34.345 33.4104 33.8918 32.6588 33.7168 31.7385C33.51 30.6506 33.7272 29.6495 34.3328 28.7447C34.3554 28.7109 34.3768 28.6768 34.3995 28.6428C34.4224 28.6138 34.7234 28.2604 34.8699 28.1298C35.5191 27.5513 36.2618 27.2548 37.1108 27.2376C38.7013 27.2055 40.1361 28.3508 40.5498 30.0148C40.7154 30.6808 40.711 31.3484 40.5309 32.0126C40.5175 32.0618 40.5069 32.1128 40.495 32.163Z" fill="#EDAE50"/>
<path d="M38.0973 30.9744C38.1241 31.544 37.6326 31.9849 37.1662 31.979C36.6341 31.9723 36.1974 31.5283 36.2022 30.9649C36.2067 30.4144 36.6114 29.959 37.1728 29.9575C37.6406 29.9561 38.1233 30.4013 38.0973 30.9744Z" fill="#414141"/>
<path d="M38.1509 29.0816C38.259 29.0699 38.3491 29.1106 38.4239 29.196C38.4902 29.2716 38.5614 29.3426 38.6261 29.4198C38.7764 29.5985 38.6847 29.9256 38.4902 29.99C38.4053 30.018 38.3274 30.0199 38.2527 29.9677C38.0925 29.8558 37.956 29.7143 37.8348 29.5591C37.7061 29.3942 37.7715 29.1831 37.9629 29.1115C38.023 29.0881 38.0869 29.0779 38.1509 29.0816V29.0816Z" fill="#FF9400"/>
<path d="M12.6182 38.7969C12.3545 38.6493 12.1981 38.4199 12.151 38.105C12.1349 37.9976 12.1071 37.8926 12.0864 37.7857C12.0718 37.7109 12.0363 37.6859 11.9629 37.6922C11.4962 37.734 11.0273 37.7392 10.5599 37.7077C10.4966 37.7037 10.4332 37.7 10.3704 37.6922C10.3104 37.685 10.2792 37.7113 10.2669 37.7727C10.2446 37.8843 10.2148 37.9943 10.1975 38.1068C10.144 38.4539 9.96525 38.6925 9.66095 38.8268C9.46624 38.8831 9.27167 38.8634 9.07711 38.8251C8.8969 38.7894 8.71186 38.7727 8.5485 38.672C8.48579 38.623 8.4184 38.5806 8.36404 38.5196C8.16992 38.3015 8.08963 38.0468 8.13974 37.7497C8.15864 37.6375 8.18369 37.5267 8.20494 37.4148C8.24083 37.2237 8.24054 37.2226 8.07308 37.1597C7.69175 37.0155 7.31979 36.8448 6.9596 36.6485C6.87287 36.6018 6.78496 36.555 6.70204 36.5016C6.63875 36.4601 6.5967 36.4689 6.55553 36.5327C6.49238 36.6311 6.42235 36.7244 6.35965 36.8234C6.09256 37.2452 5.56849 37.3688 5.15651 37.0308C5.04853 36.9421 4.93454 36.8617 4.82627 36.7737C4.44403 36.4629 4.37429 35.9678 4.65281 35.5482C4.72577 35.438 4.80034 35.3289 4.87653 35.2209C4.91271 35.1701 4.91213 35.1285 4.86627 35.0868C4.844 35.0667 4.82408 35.0437 4.80283 35.0222C4.44594 34.6613 4.1163 34.2711 3.81697 33.8552C3.73199 33.7371 3.73126 33.7375 3.60643 33.8139C3.5219 33.8656 3.4378 33.9178 3.35326 33.9697C2.90875 34.2399 2.46717 34.1212 2.19247 33.6581C2.15482 33.5988 2.1406 33.5773 2.10119 33.5061C2.0527 33.4061 1.99409 33.3123 1.95014 33.2088C1.76276 32.7673 1.8933 32.3155 2.2855 32.0662C2.37751 32.0076 2.47098 31.9515 2.56387 31.8934C2.68753 31.8155 2.68884 31.8145 2.63566 31.6791C2.46473 31.2435 2.32371 30.7953 2.21371 30.338C2.19555 30.2627 2.17562 30.1878 2.16097 30.1117C2.14632 30.0357 2.10471 30.0109 2.03482 30.0204C1.90428 30.038 1.7736 30.0583 1.64232 30.0662C1.30535 30.0869 1.0453 29.9444 0.869339 29.6369C0.796084 29.5104 0.768541 29.3685 0.756234 29.2221C0.74715 29.113 0.726931 29.015 0.720045 28.8979C0.691622 28.4558 0.929554 27.9006 1.45259 27.8607C1.56438 27.8523 1.67558 27.8344 1.78708 27.8213C1.916 27.8057 1.92055 27.8046 1.92348 27.6742C1.93186 27.2904 1.96121 26.9075 2.01138 26.5274C2.03189 26.3734 2.05534 26.2197 2.08083 26.0667C2.1053 25.9205 2.10544 25.9174 1.96846 25.8697C1.8659 25.8342 1.76334 25.8007 1.6624 25.7642C1.22375 25.6068 0.997242 25.1626 1.12031 24.6898C1.16573 24.5151 1.22155 24.343 1.28147 24.1732C1.43516 23.7354 1.85594 23.5146 2.27774 23.6471C2.40403 23.6867 2.53061 23.7262 2.65339 23.7761C2.73192 23.8073 2.76679 23.7812 2.7999 23.7075C2.87769 23.5344 2.96223 23.3647 3.04413 23.1941C3.07343 23.1352 3.10039 23.0881 3.12691 23.034C3.21481 22.8626 3.30814 22.6935 3.41993 22.5374C3.52058 22.4439 20.4562 33.0371 20.4085 33.1592C20.3759 33.2216 20.3499 33.2819 20.3187 33.342C20.2589 33.4549 20.2025 33.5697 20.1389 33.68C19.8973 34.0981 19.4575 34.2255 19.0469 33.9975C18.9391 33.9375 18.8355 33.8686 18.7296 33.8044C18.6194 33.7377 18.6181 33.7371 18.5432 33.8399C18.3761 34.0696 18.2013 34.2925 18.0187 34.5085C17.8554 34.7014 17.6827 34.8842 17.5068 35.0638C17.426 35.1464 17.4261 35.1489 17.4884 35.2429C17.5586 35.3489 17.6327 35.4517 17.7023 35.5582C17.9722 35.9711 17.8998 36.4679 17.5249 36.7718C17.4047 36.8694 17.2826 36.964 17.1586 37.0557C16.769 37.3429 16.3062 37.2644 16.0182 36.8627C15.9449 36.7596 15.8753 36.6526 15.8021 36.549C15.7358 36.4555 15.7333 36.4541 15.6363 36.5102C15.2386 36.7418 14.8257 36.9427 14.4008 37.1115C14.3414 37.1349 14.2814 37.1569 14.2222 37.1809C14.1151 37.2243 14.1131 37.2259 14.1343 37.3523C14.1532 37.4645 14.1691 37.5782 14.1994 37.6872C14.3125 38.0945 14.0763 38.5865 13.552 38.7596C13.3253 38.8346 12.8344 38.889 12.6182 38.7969Z" fill="#414141"/>
<path d="M20.3766 33.1897C20.0208 32.9701 16.8551 30.8954 16.6334 30.7653C16.5131 30.7007 16.5522 30.6929 16.6252 30.5472C16.8841 29.9588 17.0584 29.3323 17.1421 28.6888C17.2024 28.2201 17.1992 27.7493 17.1629 27.2773C17.1288 26.8325 17.0503 26.3928 16.9285 25.9658C16.7733 25.4216 16.5488 24.9123 16.2716 24.4256C15.9624 23.8829 15.5684 23.4194 15.1331 22.992C14.7985 22.6633 14.4202 22.3965 14.0208 22.1646C13.4208 21.814 12.7678 21.5773 12.0913 21.4654C11.6664 21.3953 11.2376 21.3607 10.8087 21.3906C9.89613 21.4545 9.03216 21.7097 8.22855 22.1796C7.59463 22.5598 7.02725 23.0537 6.55145 23.6394C6.43014 23.7889 6.25741 24.0864 6.13859 24.2372C6.07031 24.3239 4.93428 23.54 3.38889 22.5676C3.44588 22.4609 3.50082 22.3736 3.56177 22.2804C3.59972 22.2221 3.59664 22.178 3.54712 22.1319C3.45233 22.0424 3.35783 21.9525 3.2648 21.8609C2.96885 21.5689 2.8997 21.1816 3.08503 20.8012C3.12737 20.7141 3.20385 20.5093 3.32047 20.3605C3.37688 20.2885 3.439 20.2229 3.49995 20.1558C3.79824 19.8276 4.37813 19.8221 4.68946 20.1246C5.06628 20.4902 5.01676 20.4051 5.3341 20.1462C5.60529 19.9254 5.87971 19.7099 6.16657 19.512C6.32099 19.4056 6.33096 19.3541 6.25287 19.1759C6.16584 18.977 6.08746 18.7771 6.1043 18.5499C6.12511 18.2694 6.23221 18.0294 6.44772 17.8735C6.7554 17.6513 7.08211 17.4684 7.47461 17.4797C7.79884 17.4894 8.02593 17.6608 8.19061 17.9416C8.24921 18.0426 8.29477 18.153 8.34224 18.2611C8.3862 18.3624 8.4574 18.3954 8.55717 18.3675C8.97751 18.2505 9.40327 18.1618 9.83181 18.0881C9.98755 18.0613 10.0189 18.0127 10.0249 17.8481C10.0278 17.791 10.0278 17.7338 10.0249 17.6767C9.99165 17.1537 10.3726 16.7148 10.8228 16.6844C11.071 16.6675 11.3196 16.6476 11.566 16.6999C11.9284 16.7779 12.285 17.1308 12.2491 17.6155C12.2441 17.6825 12.2478 17.7503 12.2491 17.8181C12.2523 18.0172 12.2875 18.066 12.4725 18.0942C12.8735 18.1539 13.2705 18.2401 13.6614 18.3523C13.8683 18.4124 13.9004 18.3906 13.9865 18.1849C14.0541 18.0238 14.1218 17.8623 14.241 17.733C14.4822 17.4724 14.7824 17.4304 15.095 17.5039C15.3426 17.5622 15.5753 17.6817 15.7885 17.8294C16.1358 18.0704 16.2624 18.5031 16.121 18.924C16.0917 19.0118 16.0563 19.0975 16.0194 19.1822C15.9461 19.3485 15.9586 19.4093 16.1042 19.5073C16.4101 19.7112 16.7047 19.9338 16.9865 20.1738C17.2952 20.4387 17.2401 20.479 17.5807 20.1511C17.879 19.8639 18.3396 19.8296 18.6117 20.0264C18.8874 20.2254 19.1273 20.4763 19.2865 20.79C19.4282 21.0696 19.4092 21.5835 19.127 21.8417C19.0423 21.9197 18.9673 22.0091 18.8886 22.0943C18.8205 22.1684 18.8113 22.2492 18.8652 22.3337C19.1174 22.7287 19.3431 23.1421 19.5407 23.5709C19.5892 23.6761 19.6726 23.7029 19.7751 23.6684C19.8959 23.627 20.0191 23.5942 20.1439 23.5703C20.4777 23.5079 20.8452 23.6638 21.0167 23.9754C21.1831 24.2773 21.2854 24.6086 21.2958 24.963C21.307 25.3525 21.1246 25.6221 20.8123 25.8015C20.7085 25.8597 20.5992 25.9058 20.4862 25.939C20.3667 25.9751 20.3156 26.0524 20.3396 26.1821C20.4239 26.6466 20.4519 27.1171 20.4796 27.5882C20.4869 27.7128 20.5436 27.7817 20.6614 27.7853C20.7493 27.7881 20.8359 27.8055 20.9228 27.8177C21.3706 27.88 21.677 28.2506 21.6786 28.7326C21.6793 28.8259 21.6752 28.9192 21.6661 29.012C21.6515 29.1585 21.6023 29.3684 21.5636 29.5054C21.4514 29.9045 21.0728 30.123 20.6823 30.0966C20.5559 30.0882 20.4302 30.0666 20.3039 30.0533C20.1879 30.0412 20.182 30.0427 20.1531 30.1652C20.0664 30.5327 19.9719 30.8976 19.8478 31.2532C19.7901 31.4186 19.7306 31.5833 19.6653 31.7454C19.636 31.8172 19.6483 31.8613 19.711 31.8989C19.8342 31.9729 19.9584 32.0455 20.0772 32.1273C20.3943 32.3455 20.5253 32.7424 20.4098 33.1212C20.4005 33.145 20.3893 33.1678 20.3766 33.1897V33.1897Z" fill="#666059"/>
<path d="M7.46327 24.9993C7.60978 24.8123 7.74882 24.6181 7.90924 24.4428C8.66597 23.6158 9.58034 23.1302 10.66 23.001C11.6148 22.8866 12.5206 23.0633 13.3574 23.564C14.6455 24.3349 15.4138 25.5101 15.6561 27.0588C15.7969 27.9586 15.6902 28.8369 15.3543 29.6801C15.3354 29.7278 15.3219 29.7778 15.306 29.8267C15.3424 29.9079 15.307 29.9776 15.275 30.048C15.1121 30.4065 14.8978 30.7279 14.6497 31.0222C13.9364 31.8683 13.0633 32.4292 12.0038 32.6232C10.5973 32.8807 9.32834 32.5345 8.22512 31.5673C7.33038 30.7826 6.79123 29.7667 6.61761 28.5487C6.48253 27.6006 6.5949 26.677 6.96425 25.7947C7.05377 25.5807 7.16248 25.3786 7.27193 25.1758C7.31661 25.0914 7.37492 25.0283 7.46327 24.9993Z" fill="#EDAE50"/>
<path d="M8.27985 27.7929C8.25568 26.0457 9.66085 24.7142 11.1514 24.7061C12.6133 24.6982 14.0723 25.9363 14.0748 27.8085C14.0772 29.5464 12.751 30.8672 11.2032 30.8842C9.51683 30.9028 8.24894 29.4228 8.27985 27.7929Z" fill="#45423D"/>
<path d="M14.023 24.9426C14.0472 25.2003 13.7436 25.4024 13.5326 25.2534C13.3895 25.1525 13.2542 25.0496 13.1408 24.915C12.9775 24.7214 13.0147 24.5207 13.2311 24.3942C13.3914 24.3007 13.5408 24.294 13.6888 24.4281C13.793 24.5224 13.8939 24.6176 13.9686 24.7406C14.0065 24.8 14.0255 24.8708 14.023 24.9426Z" fill="#FF9400"/>
<path d="M8.86328 27.814C8.82738 26.5517 9.78907 25.3206 11.1849 25.3261C12.4888 25.3317 13.5066 26.4439 13.4936 27.835C13.4808 29.2064 12.4117 30.2817 11.1412 30.265C9.8238 30.2477 8.82767 29.0685 8.86328 27.814Z" fill="#EDAE50"/>
<path d="M11.1702 28.8031C10.6508 28.8031 10.2179 28.3437 10.2217 27.7902C10.2251 27.2447 10.6224 26.7883 11.1762 26.7822C11.6814 26.7768 12.1225 27.2209 12.1197 27.7987C12.1171 28.3618 11.701 28.8037 11.1702 28.8031Z" fill="#414141"/>
<path d="M12.267 26.1224C12.3215 26.1224 12.3748 26.1288 12.4211 26.1614C12.6226 26.3035 12.7304 26.5011 12.7232 26.7609C12.7194 26.8944 12.5393 27.0348 12.4166 27.0052C12.209 26.955 12.0397 26.8456 11.9241 26.649C11.8242 26.4788 11.844 26.3364 11.9937 26.2161C12.0748 26.1515 12.1673 26.1252 12.267 26.1224Z" fill="#FF9400"/>
<path d="M7.46343 24.9993C7.31223 25.2537 7.16587 25.5104 7.04896 25.7858C6.85255 26.2504 6.72499 26.7445 6.67081 27.2506C6.59891 27.8888 6.64855 28.5359 6.81677 29.1533C6.98498 29.7707 7.26834 30.3458 7.64994 30.8442C8.23012 31.6017 8.9612 32.1236 9.83704 32.4147C10.3447 32.5835 10.8674 32.6609 11.3969 32.6237C12.782 32.5263 13.9116 31.899 14.7749 30.7381C14.9561 30.4932 15.1124 30.2286 15.2412 29.9488C15.2605 29.9071 15.2844 29.8679 15.3061 29.8275C15.4265 29.8875 16.3635 30.5311 16.5232 30.65C16.5866 30.6968 16.5579 30.7591 16.5277 30.8161C16.3632 31.1287 16.1893 31.4351 15.9799 31.7167C15.5224 32.3326 14.9886 32.8576 14.3573 33.2691C13.7446 33.6689 13.0715 33.9528 12.3677 34.1085C11.8233 34.2306 11.2718 34.2487 10.722 34.2123C9.99058 34.1644 9.28968 33.9674 8.62247 33.6382C8.16541 33.4153 7.73705 33.131 7.34784 32.7924C6.58232 32.1214 5.98852 31.3109 5.60437 30.332C5.35885 29.7036 5.20533 29.0389 5.14916 28.3611C5.06126 27.3502 5.21187 26.3772 5.5465 25.4314C5.66913 25.0851 5.83087 24.7602 6.00375 24.4407C6.02075 24.4096 6.0398 24.3784 6.05943 24.3493C6.16448 24.1905 6.1844 24.1855 6.34058 24.2802C6.60283 24.4393 7.10727 24.7721 7.3641 24.9388C7.39841 24.9566 7.4316 24.9768 7.46343 24.9993V24.9993Z" fill="#666059"/>
<path d="M15.6065 28.8218C15.739 28.1947 15.7513 27.5456 15.6429 26.9132C15.5345 26.2809 15.3075 25.6782 14.9755 25.1412C14.4205 24.3799 13.7233 23.7387 12.9495 23.3427C12.4666 23.1214 11.949 22.9981 11.4235 22.9791C10.0362 22.9266 8.84682 23.4155 7.87795 24.4779C7.72559 24.6481 7.58251 24.8274 7.44941 25.0149C7.33542 24.9423 6.28597 24.3729 6.13844 24.2373C6.07983 24.1834 6.53738 23.6319 6.77253 23.3743C7.28649 22.8111 7.8674 22.3458 8.5349 22.005C9.15962 21.6622 9.87371 21.4663 10.5942 21.3848C11.1467 21.3213 11.7047 21.337 12.2532 21.4315C12.9762 21.5582 13.6428 21.8574 14.275 22.2574C14.7085 22.5285 15.1076 22.8575 15.4626 23.2364C16.1602 23.9866 16.6735 24.8571 16.9627 25.8723C17.147 26.5241 17.2363 27.2021 17.2275 27.8826C17.218 28.8977 16.9784 29.8306 16.6305 30.5817C16.5614 30.7307 16.624 30.7269 16.424 30.5817C16.1783 30.3947 15.5653 30.0042 15.3066 29.8276C15.2905 29.8145 15.5017 29.3219 15.6065 28.8218Z" fill="#45423D"/>
<path d="M9.16542 2.36256C9.05876 2.00165 8.97686 1.63357 8.88705 1.26782C8.86332 1.17152 8.88998 1.14565 8.98653 1.12071C14.329 -0.261234 20.8259 0.794706 24.1626 1.86981C24.6914 2.07162 25.2061 2.30615 25.6822 2.62702C25.8888 2.76633 26.0848 2.91983 26.239 3.12569C26.2819 3.18205 26.3206 3.24198 26.3546 3.3049C26.4353 3.45777 26.4533 3.6119 26.3774 3.77911C26.2016 4.16703 26.0104 4.54623 25.8038 4.9167C25.6704 5.15794 25.5331 5.39683 25.3977 5.63697C25.334 5.75351 25.2625 5.86502 25.1837 5.97062C25.1147 6.03903 25.0371 6.00615 24.9627 5.98838C24.636 5.91046 24.3059 5.84953 23.9811 5.76445C23.9572 5.75821 23.9329 5.76881 23.9087 5.76975C23.5685 5.65256 23.2093 5.63916 22.8638 5.55158C22.8185 5.54004 22.7791 5.56919 22.7358 5.56139C22.1683 5.44405 21.593 5.38483 21.0216 5.3013C20.8206 5.27185 20.6133 5.28743 20.4184 5.21108C20.344 5.12739 20.3305 5.018 20.3055 4.9125C20.1614 4.29009 19.9743 3.68607 19.6315 3.14969C19.5794 3.06819 19.5227 2.99042 19.4632 2.91469C19.2849 2.68701 19.072 2.55159 18.7829 2.51123C18.029 2.40573 17.2739 2.31457 16.5166 2.24631C15.2566 2.13208 13.9951 2.1126 12.7328 2.13162C12.1098 2.14081 11.4875 2.18491 10.8657 2.24195C10.3508 2.2887 9.83717 2.34418 9.32497 2.41633C9.26153 2.42287 9.20674 2.41882 9.16542 2.36256Z" fill="#EDAE50"/>
<path d="M26.8809 13.2289C26.526 13.2263 26.1712 13.2185 25.8165 13.2238C25.7033 13.2253 25.6783 13.1554 25.6537 13.0689C25.5576 13.0377 25.5602 12.9442 25.5454 12.8663C25.4307 12.2665 25.3227 11.665 25.1979 11.0673C24.8909 9.59796 24.5461 8.13903 24.1265 6.70083C24.0542 6.45305 23.9764 6.20714 23.9058 5.95874C23.8843 5.88316 23.8432 5.80073 23.9127 5.72499C23.9383 5.69382 23.9726 5.69382 24.0063 5.70021C24.4012 5.77813 24.7957 5.85605 25.1835 5.96856C25.4382 6.73091 25.6524 7.5065 25.85 8.28739C26.1186 9.34862 26.349 10.4197 26.5639 11.4945C26.6439 11.8959 26.88 13.2189 26.8809 13.2289Z" fill="#45423D"/>
<path d="M9.16557 2.36254C9.63221 2.27777 10.1032 2.22852 10.574 2.18364C10.9134 2.15123 11.2547 2.1305 11.595 2.10572C12.5406 2.03591 13.487 2.03731 14.4332 2.0543C15.1205 2.06661 15.8072 2.10541 16.4933 2.16338C16.9502 2.20203 17.4065 2.24644 17.8617 2.30176C18.2441 2.34851 18.6235 2.41599 19.0061 2.46898C19.1297 2.48596 19.2229 2.55048 19.3112 2.63634C19.6158 2.93243 19.8309 3.29459 19.9998 3.68979C20.2008 4.15947 20.3389 4.65067 20.4304 5.15698C20.4092 5.22804 20.3547 5.22897 20.2996 5.22539C20.0565 5.2098 19.813 5.19157 19.5709 5.16757C19.3572 5.14653 19.1428 5.13641 18.9294 5.12363C18.5894 5.10368 18.2489 5.06441 17.9071 5.08451C17.7752 5.09246 17.6453 5.05709 17.5137 5.0549C17.3356 5.0521 17.2802 5.09308 17.2183 5.26871C16.8541 6.30455 16.5542 7.36173 16.2906 8.43107C15.8833 10.0829 15.5727 11.7564 15.3115 13.4405C15.2415 13.8906 15.1845 14.3428 15.1221 14.7943C15.1093 14.8861 15.1 14.9802 15.045 15.0592C15.0021 15.105 14.9474 15.1081 14.895 15.0936C14.65 15.0263 14.4068 14.9512 14.1624 14.882C14.1433 14.8774 14.1256 14.8679 14.1107 14.8543C14.0958 14.8408 14.0843 14.8235 14.0772 14.8041C14.0378 14.6914 14.0625 14.5769 14.0783 14.4659C14.3274 12.6442 14.6323 10.8339 15.0333 9.04288C15.3169 7.77625 15.6401 6.5224 16.0542 5.29614C16.1169 5.11069 16.0817 5.05677 15.8986 5.05459C15.1728 5.04602 14.4481 5.07282 13.7226 5.10976C13.3581 5.12846 12.9937 5.14435 12.6301 5.17677C12.6058 5.17677 12.5813 5.1777 12.5568 5.17786C12.1772 5.18051 12.1684 5.18939 12.0487 5.56511C11.3521 7.7496 10.8651 9.98896 10.4889 12.2581C10.3763 12.9367 10.2777 13.6176 10.1775 14.2983C10.1684 14.3606 10.162 14.422 10.1251 14.4742C10.0899 14.5345 10.0319 14.5426 9.97358 14.5521C9.67089 14.5989 9.36644 14.6314 9.06521 14.6883C8.99738 14.7013 8.91402 14.7167 8.90039 14.6004C8.95089 14.2417 9.00148 13.883 9.05217 13.5242C9.18345 12.5911 9.33211 11.6613 9.49815 10.7348C9.71587 9.52083 9.96493 8.31638 10.2726 7.12642C10.4191 6.56199 10.5705 5.9988 10.7546 5.44652C10.8191 5.25297 10.8188 5.25297 10.6795 5.11926C10.3434 4.79559 10.0084 4.47068 9.67059 4.14903C9.60849 4.0911 9.56499 4.01394 9.54621 3.92837C9.43178 3.45666 9.31179 2.9865 9.1937 2.51573C9.17327 2.46763 9.16373 2.41511 9.16587 2.36238L9.16557 2.36254Z" fill="#45423D"/>
<path d="M9.166 2.36181C9.18387 2.41121 9.20424 2.45998 9.19384 2.51515C9.16454 2.46855 9.12733 2.42274 9.166 2.36181Z" fill="#A9A9A9"/>
<path d="M16.9227 15.9071C16.3613 15.5864 15.7727 15.3336 15.1707 15.1147C15.1159 15.0947 15.0584 15.0799 15.0166 15.0321C15.0786 14.5753 15.1359 14.1178 15.2033 13.662C15.3595 12.6067 15.542 11.5566 15.7508 10.5118C16.0687 8.92819 16.449 7.36267 16.9491 5.83205C17.0291 5.58708 17.112 5.3432 17.1952 5.09963C17.2373 4.97636 17.2392 4.97589 17.3632 4.97963C18.0557 5.00052 18.7479 5.02872 19.4393 5.07485C19.77 5.09682 20.1001 5.12924 20.4304 5.15697C20.9763 5.21276 21.5203 5.28429 22.0633 5.3661C22.294 5.40101 22.5248 5.43311 22.7539 5.47846C22.8858 5.53441 22.9674 5.64162 23.047 5.76473C23.3493 6.23333 23.5904 6.73932 23.7908 7.26075C24.0006 7.80617 24.1925 8.3625 24.322 8.93894C24.373 9.16583 24.4454 9.38696 24.4978 9.61308C24.6693 10.3572 24.8593 11.0965 24.9979 11.8492C25.0689 12.2352 25.1444 12.6209 25.238 13.0023C25.2629 13.1038 25.3042 13.2186 25.1813 13.2917C25.1681 13.3073 25.1573 13.3268 25.1412 13.336C24.9237 13.4583 24.7768 13.6575 24.6341 13.8605C24.3956 14.1995 24.1594 14.5403 23.9223 14.8805C23.8555 14.9116 23.8005 14.8858 23.7458 14.8442C23.4603 14.6266 23.1722 14.4129 22.8814 14.2029C22.7336 14.0958 22.7221 14.0422 22.8213 13.8842C22.9621 13.6598 23.1135 13.4432 23.2587 13.2221C23.3145 13.137 23.3743 13.0542 23.4198 12.9623C23.502 12.7955 23.4718 12.6293 23.3455 12.5297C23.2192 12.4301 23.0619 12.4504 22.9407 12.5948C22.7879 12.7772 22.6675 12.9861 22.537 13.187C22.1226 13.8221 21.7075 14.4567 21.2916 15.0908C21.2525 15.1504 21.2126 15.2099 21.1861 15.2778C21.1253 15.4321 21.1677 15.5911 21.2909 15.6766C21.4184 15.7651 21.565 15.7477 21.673 15.6162C21.824 15.4323 21.9436 15.2228 22.075 15.024C22.1588 14.8964 22.2423 14.7686 22.3288 14.6431C22.389 14.5559 22.4555 14.5429 22.5422 14.6021C22.8584 14.8183 23.1602 15.0562 23.4686 15.2841C23.5203 15.3223 23.5712 15.3675 23.5691 15.4457C23.4727 15.6129 23.3766 15.7804 23.2795 15.947C23.2307 16.0307 23.1784 16.112 23.1302 16.1963C22.9296 16.5449 22.9234 16.9054 23.0963 17.2632C23.5619 18.2267 24.0457 19.18 24.5916 20.0956C24.6596 20.2096 24.7327 20.3196 24.801 20.4329C24.9933 20.7519 25.2806 20.8798 25.6188 20.8906C25.9449 20.9008 26.2703 20.8628 26.5951 20.8324C26.5878 22.275 26.1996 23.5948 25.473 24.8092C25.3712 24.9792 25.2612 25.0518 25.0628 25.0456C24.5368 25.0289 24.0101 25.0425 23.4837 25.044C23.3773 25.0285 23.3811 24.9284 23.3665 24.8533C23.3041 24.5438 23.222 24.2404 23.1353 23.9379C22.8024 22.7709 22.3198 21.6583 21.701 20.6316C21.501 20.2996 21.2777 19.9861 21.0683 19.6618C20.8736 19.3916 20.6637 19.1343 20.447 18.8847C20.0611 18.4401 19.6605 18.0104 19.222 17.6224C18.5879 17.0645 17.9088 16.5673 17.1924 16.1365C17.0932 16.0731 16.9743 16.0336 16.9227 15.9071Z" fill="#B9E1E1"/>
<path d="M25.1493 13.3279C25.1899 13.2344 25.1864 13.1054 25.1653 13.0173C24.9802 12.2498 23.6735 6.89908 22.9345 5.72159C22.845 5.57884 22.8239 5.54098 22.7534 5.47849C23.1005 5.50716 23.4408 5.58508 23.7848 5.63619C23.8112 5.63942 23.8364 5.64922 23.8585 5.66479C23.8806 5.68037 23.8989 5.70127 23.912 5.7258C24.3735 7.21672 24.7695 8.72703 25.0999 10.2567C25.3024 11.1889 25.5101 12.1906 25.6754 13.1312C25.6758 13.1334 25.6766 13.1355 25.6777 13.1373C25.711 13.2029 25.7195 13.1848 25.5263 13.2106C25.4064 13.2269 25.2453 13.2838 25.1493 13.3279Z" fill="#DCF9FB"/>
<path d="M14.1109 14.7859C13.8104 14.7235 13.5102 14.6554 13.209 14.6006C12.8496 14.5359 12.4873 14.4912 12.1235 14.4667C11.7792 14.4429 11.4379 14.4356 11.093 14.4348C10.8991 14.4348 10.7028 14.4549 10.5078 14.4396C10.428 14.3745 10.4423 14.2861 10.4539 14.1974C10.6193 12.9286 10.8117 11.6653 11.0624 10.4107C11.2382 9.52707 11.4361 8.64972 11.6798 7.78514C11.9124 6.95921 12.1835 6.14778 12.6035 5.40398C12.6668 5.29209 12.6767 5.19952 12.6098 5.09465C12.6561 5.07485 12.7053 5.07501 12.7538 5.07267C13.8594 5.01938 14.9648 4.96156 16.072 4.97231C16.1197 4.97231 16.1694 4.96032 16.2158 4.98556C16.2344 5.04151 16.2034 5.08717 16.1874 5.13376C15.6992 6.55186 15.3303 8.00799 15.0127 9.47891C14.7433 10.7268 14.5195 11.9841 14.3267 13.2478C14.2491 13.7599 14.183 14.2733 14.1109 14.7859Z" fill="#B9E1E1"/>
<path d="M12.7066 5.07543C12.9045 5.05081 12.8858 5.06234 12.7671 5.27801C12.4467 5.86021 12.1768 6.45878 11.9707 7.09038C11.8511 7.45643 11.7352 7.82592 11.6457 8.20351C11.548 8.61554 11.4327 9.02273 11.342 9.43694C11.2502 9.85614 11.1726 10.2785 11.0877 10.6992C11.0006 11.1301 10.9119 11.5605 10.8456 11.9954C10.7431 12.6707 10.644 13.3465 10.5485 14.0227C10.5292 14.1603 10.5046 14.2988 10.5085 14.4397C10.4591 14.4633 10.121 14.5003 10.0952 14.4397C10.1175 14.1083 10.1759 13.7818 10.2241 13.4544C10.3434 12.6453 10.4774 11.8388 10.6262 11.035C10.9732 9.17748 11.4009 7.34174 11.9741 5.54776C12.0102 5.43494 12.053 5.3243 12.0851 5.21023C12.1039 5.14337 12.1412 5.11859 12.2011 5.11672C12.3384 5.1094 12.6823 5.07434 12.7066 5.07543Z" fill="#DCF9FB"/>
<path d="M30.9836 27.9254C30.6427 27.8975 30.2628 27.6121 29.9914 28.3491C29.7217 29.0796 30.1182 29.3611 30.0584 29.3364C30.0289 29.3325 29.9991 29.3315 29.9694 29.3335C29.7462 29.3363 29.5153 29.297 29.2924 29.2967C29.2135 29.2582 29.2321 29.1895 29.2453 29.1229C29.3575 28.5486 29.5295 27.9894 29.758 27.4555C30.0604 26.7555 30.4307 26.0997 30.8945 25.5045C31.5392 24.6777 32.2946 23.9928 33.1729 23.4608C34.0871 22.907 35.0684 22.5645 36.108 22.4152C36.6103 22.3432 37.1168 22.3162 37.6244 22.3541C37.8171 22.3684 37.9675 22.2849 38.0711 22.116C38.1133 22.0472 38.1599 21.9949 38.2323 21.9676C38.3159 21.9667 38.392 22.0044 38.4718 22.0234C38.6476 22.0653 38.666 22.0586 38.743 21.8894C38.8676 21.616 38.9966 21.3454 39.1575 21.0931C39.1971 21.0659 39.2301 21.0292 39.2539 20.986C39.4624 20.6464 39.729 20.3656 40.0424 20.1351C40.0513 20.1307 40.0611 20.129 40.0708 20.1302C40.1842 20.1302 40.2138 20.2223 40.2412 20.3123C40.3612 20.7074 40.4962 21.0957 40.663 21.4721C40.9393 22.0954 41.2807 22.672 41.7188 23.1808C41.7841 23.2567 41.8666 23.3243 41.8284 23.4481C41.6002 23.874 41.372 24.2999 41.1439 24.7259C41.1103 24.7882 41.0733 24.849 41.0378 24.9106C40.9743 25.0178 40.9027 25.1194 40.8238 25.2143C40.8032 25.1985 40.7815 25.1846 40.7587 25.1727C40.7455 25.1658 40.7206 25.1424 40.7079 25.135C40.4689 24.9967 40.5027 24.9875 40.6217 24.7298C40.6964 24.5673 40.7353 24.4025 40.6881 24.2193C40.6695 24.1436 40.6363 24.0729 40.5908 24.0115C40.5452 23.9501 40.4882 23.8994 40.4233 23.8626C40.2705 23.7742 40.112 23.6912 39.9374 23.6522C39.6924 23.5981 39.4365 23.7189 39.3185 23.9545C39.2795 24.0324 39.2523 24.116 39.216 24.1954C39.1641 24.3112 39.1342 24.3274 39.0212 24.2931C38.7206 24.202 38.417 24.1275 38.106 24.0906C38.0767 24.087 38.049 24.075 38.02 24.0722C37.9369 24.0617 37.9019 24.0098 37.9028 23.9246C37.9028 23.8415 37.8975 23.7583 37.9028 23.6753C37.922 23.3613 37.7339 23.149 37.4609 23.0917C37.264 23.0502 37.0612 23.0529 36.8654 23.0998C36.6151 23.1598 36.467 23.3223 36.4321 23.5984C36.4181 23.7009 36.4099 23.8042 36.4075 23.9078C36.4061 24.0426 36.3974 24.0539 36.2694 24.0806C36.1116 24.1135 35.9523 24.1384 35.7944 24.1703C35.6315 24.2034 35.4703 24.2446 35.3109 24.2939C35.2073 24.3262 35.183 24.3132 35.1398 24.2104C35.0999 24.1158 35.0626 24.0201 35.0113 23.9315C34.8761 23.6977 34.6315 23.5897 34.3813 23.6583C34.2015 23.7082 34.0304 23.7886 33.8747 23.8964C33.6477 24.0522 33.5648 24.3464 33.6609 24.624C33.6895 24.7064 33.7315 24.7834 33.7649 24.8641C33.8071 24.9657 33.8035 24.9899 33.7197 25.0444C33.4238 25.237 33.15 25.4619 32.8777 25.6891C32.7981 25.7557 32.7763 25.7564 32.7019 25.6834C32.6356 25.6146 32.5653 25.5503 32.4915 25.4909C32.2821 25.3298 31.9961 25.3277 31.7994 25.5045C31.6621 25.6279 31.5323 25.7622 31.4345 25.9269C31.2864 26.1763 31.3206 26.4723 31.5224 26.6749C31.6041 26.7569 31.6126 26.7631 31.7453 26.8596C31.5413 27.0765 31.1431 27.662 31.0265 27.8926" fill="#414141"/>
<path d="M28.2565 29.2676C27.4368 29.2666 26.617 29.2658 25.7972 29.2649C24.4944 29.2649 23.1915 29.2649 21.8886 29.2649C21.5882 29.2649 21.5831 29.2548 21.6249 28.9413C21.6542 28.7128 21.6594 28.4848 21.5389 28.2769C21.4089 28.0528 21.2253 27.9092 20.9788 27.869C20.8585 27.848 20.7371 27.8348 20.6153 27.8297C20.4688 27.8252 20.4422 27.7864 20.4368 27.6291C20.4192 27.1211 20.3801 26.6162 20.2883 26.1155C20.2518 25.9176 20.2619 25.9009 20.4485 25.8461C20.5996 25.8018 20.7467 25.7468 20.8815 25.6606C21.2164 25.4462 21.3147 25.08 21.2344 24.7035C21.1978 24.5321 21.142 24.3645 21.0879 24.1979C20.9474 23.7657 20.5751 23.5408 20.153 23.6249C20.0084 23.6538 19.87 23.7029 19.7305 23.7496C19.6161 23.7886 19.6017 23.7847 19.5485 23.6664C19.3268 23.1692 19.0653 22.6931 18.7669 22.2436C18.7108 22.1598 18.7137 22.1334 18.7991 22.0652C18.9163 21.9708 19.0113 21.8509 19.12 21.7471C19.3815 21.4978 19.3768 20.9729 19.2203 20.7224C19.073 20.4866 18.8862 20.286 18.6829 20.1098C18.4273 19.8874 17.979 19.8794 17.6947 20.1512C17.5969 20.2447 17.4858 20.3226 17.3992 20.4294C17.3474 20.4934 17.2995 20.4948 17.2381 20.4397C17.0932 20.3089 16.9468 20.1797 16.7965 20.0562C16.5609 19.8626 16.313 19.6882 16.0616 19.5181C15.8437 19.3706 15.8538 19.4038 15.9646 19.1596C16.0108 19.0624 16.0514 18.9623 16.0862 18.8598C16.2129 18.4607 16.0981 18.0235 15.6938 17.8053C15.5195 17.7118 15.3444 17.6153 15.1565 17.5609C14.8927 17.4846 14.6353 17.4986 14.4035 17.6817C14.3095 17.757 14.2341 17.8554 14.1838 17.9686C14.1214 18.1036 14.0666 18.2424 14.0068 18.3786C13.9615 18.4813 13.9516 18.4877 13.8494 18.4536C13.4577 18.3227 13.0571 18.2332 12.652 18.1648C12.5558 18.1492 12.4592 18.1336 12.3628 18.119C12.2232 18.0975 12.2123 18.0859 12.2098 17.93C12.2079 17.8003 12.2084 17.6705 12.2098 17.5404C12.2131 17.1801 12.034 16.9482 11.7442 16.7978C11.6609 16.7531 11.5698 16.7274 11.4766 16.7225C11.2577 16.7146 11.0384 16.6998 10.8198 16.7381C10.4029 16.8123 10.1441 17.1218 10.1312 17.57C10.1279 17.684 10.1312 17.7983 10.1298 17.9128C10.1278 18.0878 10.1211 18.0931 9.96267 18.1199C9.47597 18.2019 8.99073 18.2913 8.51779 18.4436C8.40498 18.4797 8.3915 18.4719 8.33993 18.3535C8.29085 18.2405 8.24294 18.1269 8.19342 18.0139C7.99856 17.565 7.54673 17.4199 7.13035 17.5813C6.97438 17.6414 6.82214 17.712 6.67455 17.7925C6.43237 17.9257 6.27268 18.1314 6.22037 18.4244C6.19346 18.5782 6.20705 18.7369 6.25964 18.883C6.30506 19.0149 6.36527 19.1394 6.42212 19.2658C6.47032 19.373 6.4649 19.3974 6.37274 19.4568C5.98405 19.7077 5.621 19.9963 5.26659 20.2983C5.22103 20.3371 5.17869 20.3811 5.13474 20.421C5.05899 20.4886 5.03569 20.4885 4.95892 20.418C4.87409 20.3401 4.78663 20.265 4.70722 20.181C4.4079 19.8645 3.8475 19.8664 3.55697 20.2026C3.47126 20.3018 3.38966 20.4052 3.30175 20.5019C3.19538 20.6187 3.18835 20.6147 3.07935 20.5078C2.98675 20.4168 2.76845 20.2126 2.75292 20.2005C2.60744 20.028 2.61345 20.0267 2.76069 19.8498C4.01253 18.3468 5.59952 17.2027 7.37575 16.5226C8.27107 16.1798 9.19247 15.9563 10.1392 15.8695C10.7175 15.8184 11.2985 15.8126 11.8776 15.852C12.6618 15.9021 13.4389 16.039 14.1964 16.2606C14.8178 16.4414 15.4223 16.6826 16.0021 16.9814C16.3983 17.1801 16.7826 17.4046 17.1528 17.6537C17.6714 18.0029 18.1623 18.3967 18.6207 18.831C19.0592 19.2499 19.4709 19.6995 19.8531 20.1768C19.905 20.2454 19.9535 20.3167 19.9985 20.3906C20.3561 20.8199 20.6431 21.3024 20.9111 21.7959C21.45 22.7842 21.8532 23.8495 22.1083 24.9594C22.1974 25.3475 22.2568 25.7415 22.3225 26.1344C22.3798 26.4772 22.6163 26.5945 22.9064 26.4286C23.2703 26.2205 23.5014 25.7259 23.4485 25.2879C23.437 25.1928 23.3752 25.0853 23.4712 24.996C23.5472 24.9505 23.631 24.9542 23.7138 24.9539C24.1533 24.9525 24.592 24.9478 25.0309 24.9561C25.2122 24.9595 25.3335 24.8875 25.4306 24.7278C25.7937 24.1296 26.0702 23.4768 26.2511 22.7912C26.3936 22.2562 26.4962 21.713 26.5309 21.1567C26.5351 21.0996 26.5342 21.0422 26.5283 20.9853C26.5206 20.9176 26.5366 20.862 26.5954 20.8266C26.6906 20.8247 26.8989 20.812 26.9083 20.811C27.2728 20.7881 27.2728 20.7883 27.2736 21.178C27.2736 21.4741 27.2718 21.7702 27.2744 22.0653C27.2768 22.3359 27.3446 22.4194 27.5932 22.4861C28.1888 22.6474 28.7914 22.6994 29.4057 22.6655C29.6894 22.6499 29.9668 22.5957 30.2484 22.572C30.3067 22.565 30.3637 22.5493 30.4178 22.5252C30.5888 22.4556 30.639 22.385 30.6415 22.1874C30.6459 21.819 30.6402 21.4506 30.6447 21.0822C30.6458 21.0018 30.6301 20.9136 30.6972 20.8484C30.8078 20.758 30.9134 20.8271 31.0123 20.871C31.2566 20.9801 31.4403 21.174 31.6091 21.3836C31.9214 21.7718 32.1534 22.2151 32.3733 22.6661C32.3926 22.7024 32.4008 22.7443 32.3967 22.7858C32.3889 22.8866 32.3201 22.9369 32.2502 22.9852C31.6746 23.3809 31.1578 23.8506 30.6825 24.3748C30.1374 24.9756 29.6853 25.6472 29.3024 26.3731C28.8576 27.2162 28.5552 28.1149 28.3766 29.0622C28.3612 29.1415 28.3765 29.2542 28.2565 29.2676Z" fill="#45423D"/>
<path d="M28.2559 29.2674C28.293 29.0905 28.3283 28.9132 28.3672 28.7376C28.6858 27.2939 29.2977 26.0055 30.1813 24.861C30.768 24.0962 31.4638 23.434 32.2435 22.8986C32.2883 22.8674 32.3377 22.8425 32.3654 22.7895C32.4005 22.7271 35.0595 20.9071 38.0331 21.492C38.2101 21.6287 38.2309 21.8915 38.1348 22.1298C38.0409 22.3623 37.8658 22.4356 37.5852 22.4284C37.3263 22.4217 37.068 22.4069 36.8103 22.4219C36.377 22.445 35.946 22.5033 35.521 22.5962C34.3569 22.8557 33.2964 23.3589 32.3451 24.1181C31.2337 25.0051 30.3948 26.127 29.8189 27.4708C29.5854 28.0196 29.4096 28.5942 29.2945 29.184C29.2875 29.2194 29.1919 29.7895 29.1626 30.0411C29.136 30.2749 29.0308 30.4379 28.8186 30.515C28.507 30.6282 28.174 30.3863 28.1673 30.0363C28.1636 29.8599 28.1993 29.6865 28.2242 29.5125C28.2342 29.4437 28.2451 29.2788 28.2559 29.2674Z" fill="#A19D98"/>
<path d="M25.7198 28.0536C25.1881 28.0536 24.6564 28.0553 24.1248 28.0528C23.8758 28.0516 23.6953 27.9222 23.5926 27.685C23.4899 27.4479 23.5215 27.2175 23.6707 27.0117C23.789 26.8488 23.9584 26.7863 24.1467 26.7799C24.2734 26.7757 24.4003 26.7782 24.5276 26.7784C25.425 26.779 26.3225 26.7796 27.2199 26.7802C27.39 26.7802 27.5484 26.8114 27.6831 26.9342C27.8692 27.1041 27.945 27.3794 27.8675 27.6247C27.8296 27.7491 27.7558 27.8575 27.6567 27.9347C27.5575 28.0119 27.438 28.0538 27.3151 28.0545C26.7834 28.0575 26.2519 28.0555 25.7202 28.0555L25.7198 28.0536Z" fill="#FCBE4F"/>
<path d="M8.89953 14.5991C8.93278 14.6273 8.97088 14.6281 9.00999 14.6198C9.34257 14.5506 9.67896 14.5107 10.0156 14.4736C10.0449 14.4702 10.0303 14.4707 10.1134 14.4623C11.2957 14.3688 12.8717 14.4376 14.111 14.7858C14.3843 14.8662 14.6596 14.926 14.9331 15.0058C14.9611 15.0075 16.2999 15.5283 16.82 15.8257C16.8666 15.861 16.8893 15.8799 16.9226 15.907C16.944 16.1621 16.8694 16.3538 16.7293 16.5278C16.5343 16.7705 16.2766 16.9444 15.9883 17.0546C15.6174 16.8832 15.2482 16.7075 14.8653 16.567C14.1876 16.318 13.4893 16.1374 12.7798 16.0276C12.1616 15.934 11.5373 15.8939 10.913 15.9076C10.1764 15.9207 9.44301 16.0145 8.72445 16.1873C6.49418 16.7201 4.47191 17.9696 2.93188 19.7663C2.88266 19.8239 2.8324 19.8805 2.78303 19.9377C2.68047 20.0574 2.63564 20.135 2.56004 20.2302C2.43448 20.3885 2.31229 20.5501 2.18996 20.7114C1.90426 21.0877 1.40217 21.108 1.08937 20.7134C0.877666 20.4462 0.913562 20.0433 1.08586 19.7895C1.27373 19.5179 1.47457 19.2566 1.68757 19.0069C1.90529 18.7477 2.11743 18.4831 2.3561 18.2452C2.69058 17.912 3.0236 17.5762 3.38738 17.279C4.62964 16.2642 5.99116 15.4903 7.49171 15.0016C7.88825 14.8721 8.29099 14.7652 8.69822 14.6812C8.77001 14.6669 8.84532 14.6614 8.89953 14.5991Z" fill="#EDAE50"/>
<path d="M21.1087 19.6162C21.4722 20.0736 21.768 20.5802 22.0537 21.0935C22.3896 21.6974 22.669 22.3307 22.9056 22.9855C23.1226 23.5867 23.3103 24.1973 23.4351 24.8284C23.4498 24.8995 23.4675 24.9687 23.4838 25.0401C23.5164 25.2336 23.554 25.4253 23.5141 25.6249C23.4325 26.0341 23.2409 26.3545 22.8747 26.533C22.5681 26.6824 22.3019 26.5261 22.2518 26.171C22.1199 25.2359 21.9045 24.3231 21.5762 23.4423C21.1878 22.4004 20.6788 21.432 20.0314 20.5455C20.0021 20.5048 19.9746 20.4618 19.9463 20.4198C20.0163 20.1725 20.1615 19.9724 20.3011 19.7669C20.3795 19.6514 20.5007 19.6703 20.6018 19.6365C20.7653 19.5818 20.937 19.537 21.1087 19.6162Z" fill="#EDAE50"/>
<path d="M21.0259 19.5949C20.2243 19.526 19.9725 20.367 19.9468 20.4197C19.6006 19.9712 19.2354 19.5417 18.8379 19.1434C18.03 18.3314 17.1134 17.6515 16.1178 17.1258C16.0738 17.1029 16.0315 17.079 15.9883 17.0546C16.0256 17.0078 16.3554 16.9391 16.6304 16.5403C16.8631 16.2029 16.9179 15.9742 16.9226 15.907C17.185 16.0119 17.4141 16.1822 17.652 16.3335C18.0634 16.5929 18.4589 16.8797 18.8361 17.1923C19.1769 17.4772 19.5076 17.7739 19.8224 18.0928C20.0382 18.3109 20.2404 18.542 20.4444 18.7708C20.6817 19.037 20.921 19.3047 21.1088 19.6162" fill="#FF9400"/>
<path d="M41.8157 23.4448C41.7296 23.2918 41.5988 23.1799 41.4934 23.043C40.927 22.3083 40.521 21.4809 40.2352 20.584C40.2024 20.481 40.1723 20.3769 40.1395 20.2737C40.1257 20.2301 40.1153 20.1802 40.0567 20.1818C39.3349 19.5241 38.4634 19.1574 37.61 18.7559C36.3207 18.15 34.9746 17.7336 33.6128 17.3666C32.5447 17.0788 31.4626 16.8653 30.3773 16.6678C30.2785 16.6499 30.1729 16.6412 30.1048 16.5432C30.0869 16.4721 30.0869 16.3995 30.0867 16.327C30.0853 15.4684 30.0857 14.6097 30.0881 13.7511C30.0881 13.6576 30.0609 13.55 30.1559 13.4809C30.3699 13.5368 30.5909 13.5368 30.808 13.5689C31.2182 13.6294 31.6311 13.6744 32.0407 13.7403C32.5711 13.8248 33.1032 13.8999 33.6293 14.0121C33.9927 14.09 34.3579 14.1556 34.7206 14.2379C35.1454 14.3344 35.5703 14.4319 35.9899 14.5455C36.6894 14.7345 37.3886 14.9264 38.0704 15.1815C38.3417 15.2829 38.6108 15.3925 38.8855 15.4825C39.1655 15.5742 39.385 15.7571 39.5938 15.9631C40.048 16.4112 40.501 16.8604 40.9393 17.3261C41.2323 17.6377 41.5268 17.9472 41.8062 18.2732C41.9272 18.4144 42.0611 18.5436 42.1871 18.6809C42.4049 18.9187 42.6075 19.1713 42.8305 19.4041C43.0095 19.5911 43.1154 19.8266 43.1286 20.0962C43.1471 20.4749 43.1356 20.8506 43.0453 21.2232C42.8788 21.9089 42.5717 22.5137 42.1555 23.0605C42.0512 23.1965 41.9434 23.3304 41.8157 23.4448Z" fill="#EDAE50"/>
<path d="M23.5687 15.4422L22.56 14.6979C22.5433 14.6872 22.5274 14.6752 22.5126 14.6617C22.4515 14.5994 22.4148 14.6281 22.3763 14.6929C22.3192 14.7892 22.255 14.881 22.1935 14.9744C22.0477 15.1949 21.9048 15.4177 21.755 15.6349C21.6436 15.7962 21.5024 15.8459 21.3465 15.794C21.1131 15.7161 21.0078 15.4489 21.1234 15.2175C21.1597 15.1445 21.2079 15.0781 21.2524 15.0102C21.7655 14.2279 22.2789 13.4458 22.7927 12.6638C22.8249 12.6119 22.8604 12.5624 22.899 12.5157C23.033 12.3624 23.236 12.3384 23.3897 12.4534C23.4645 12.509 23.5173 12.592 23.5381 12.6865C23.5589 12.7809 23.5462 12.8802 23.5024 12.9653C23.4568 13.0565 23.3984 13.1405 23.3425 13.2254C23.1833 13.4676 23.0224 13.7085 22.8621 13.9499C22.7983 14.0462 22.7969 14.0482 22.8882 14.116C23.2321 14.371 23.5765 14.6252 23.9212 14.8787L23.5687 15.4422Z" fill="#45423E"/>
<path d="M27.7272 13.2882C27.7742 13.3236 27.7711 13.3775 27.7711 13.4284C27.7723 14.3384 27.7723 15.2483 27.7711 16.158C27.7724 16.1891 27.7674 16.2201 27.7565 16.2489C27.6961 16.3268 27.61 16.3237 27.5285 16.324C27.2267 16.3256 26.925 16.3084 26.6237 16.3022C25.7812 16.2829 24.9388 16.2946 24.0953 16.2963C24.0367 16.2963 23.9781 16.2997 23.9238 16.3274C23.8917 16.343 23.8624 16.3655 23.8669 16.4083C23.8715 16.4512 23.9053 16.4644 23.9393 16.4739C23.9629 16.4804 23.9873 16.4834 24.0117 16.4828C24.4253 16.4733 24.8386 16.4915 25.2529 16.464C25.6507 16.4373 26.0505 16.4454 26.4501 16.471C26.7946 16.4929 27.1404 16.5021 27.4857 16.5154C27.5736 16.5186 27.6615 16.5123 27.7398 16.5679C27.7789 16.7764 27.8401 16.9827 27.7984 17.1998C27.7974 17.2196 27.7921 17.239 27.7829 17.2562C27.7184 17.3379 27.6182 17.3396 27.5345 17.3767C27.376 17.4468 27.2972 17.5612 27.3022 17.7473C27.3249 18.597 27.2619 19.4459 27.2729 20.2955C27.2742 20.394 27.2761 20.4921 27.2863 20.5903C27.3085 20.8026 27.2534 20.8725 27.0519 20.8942C26.9986 20.8998 26.945 20.9015 26.8908 20.9029C26.7971 20.9043 26.7035 20.9048 26.6102 20.897C26.3362 20.9425 26.0589 20.9458 25.7828 20.9657C25.2711 21.0023 24.8951 20.7809 24.6286 20.3112C24.2584 19.6597 23.8851 19.0105 23.5464 18.3393C23.3944 18.0382 23.2533 17.7315 23.0934 17.4345C22.8362 16.9573 22.8334 16.4909 23.1339 16.0343C23.2649 15.8353 23.3604 15.6111 23.5171 15.4308C23.6039 15.2137 23.7446 15.0329 23.8709 14.8423C24.1608 14.3876 24.4667 13.9453 24.7962 13.5221C24.8967 13.3929 25.0367 13.3133 25.1657 13.2206C25.3367 13.1713 25.9569 13.1582 26.1142 13.1528C26.2928 13.1464 26.4719 13.1503 26.6508 13.1528C26.7359 13.1534 27.5631 13.2011 27.7272 13.2882Z" fill="#EDAE50"/>
<path d="M38.2388 22.0372C38.1836 22.0046 38.1493 21.9593 38.1529 21.8877C38.1642 21.6696 38.0315 21.562 37.8691 21.4816C37.6529 21.3978 36.0054 21.2331 34.3676 21.8382C33.7915 22.0365 33.2361 22.2842 32.7135 22.6117C32.6172 22.6722 32.5107 22.7132 32.4204 22.7856C32.4077 22.7958 32.3835 22.7892 32.3646 22.7905C32.2363 22.5952 32.1512 22.3739 32.0354 22.1709C31.8562 21.8567 31.6667 21.5519 31.4245 21.287C31.234 21.0791 31.0185 20.9197 30.7458 20.8612C30.6708 20.8673 30.6597 20.809 30.6505 20.7521C30.6424 20.6853 30.6395 20.6178 30.642 20.5505C30.642 20.0791 30.6341 19.6075 30.6439 19.1363C30.653 18.6903 30.605 18.2466 30.6109 17.8011C30.6131 17.6315 30.5376 17.5165 30.3911 17.4506C30.3328 17.4244 30.2761 17.3942 30.2213 17.3602C30.1796 17.3341 30.1343 17.3071 30.1526 17.2406L30.1582 16.9035C30.2067 16.832 30.2726 16.8421 30.3429 16.8533C31.1536 16.983 31.9587 17.1432 32.7583 17.3341C33.7197 17.5653 34.6754 17.8192 35.6113 18.15C36.3613 18.4149 37.1036 18.7029 37.8224 19.0554C38.1632 19.2226 38.511 19.3763 38.8223 19.6029C38.9395 19.6881 39.0337 19.8014 39.1228 19.9194C39.335 20.1999 39.2813 20.5256 39.2616 20.8447C39.2556 20.9444 39.2109 21.037 39.203 21.1374C39.0195 21.4342 38.8628 21.7488 38.7352 22.0771C38.7091 22.1453 38.6741 22.1706 38.6011 22.1444C38.4832 22.1017 38.3602 22.0725 38.2388 22.0372Z" fill="#EDAE50"/>
<path d="M39.2046 21.1378C39.1637 21.0544 39.1701 20.9642 39.1854 20.8788C39.2173 20.6983 39.206 20.5171 39.206 20.336C39.206 20.1585 39.1137 20.0207 39.0126 19.8942C38.8857 19.7362 38.7301 19.6069 38.5552 19.5141C37.737 19.0719 36.89 18.7038 36.0233 18.3842C35.3968 18.1529 34.7649 17.9419 34.1227 17.7671C33.3111 17.5461 32.4965 17.3423 31.6719 17.1749C31.1981 17.0789 30.7208 17.0069 30.2467 16.9132C30.2181 16.9076 30.1881 16.9065 30.1597 16.9033C30.1597 16.789 30.1597 16.675 30.1597 16.5614C30.4509 16.5908 30.7375 16.6524 31.025 16.7074C31.3988 16.7789 31.772 16.8548 32.1444 16.9352C32.5355 17.0205 32.9268 17.1032 33.3134 17.2124C33.6097 17.296 33.9094 17.367 34.2064 17.4493C34.9331 17.6507 35.651 17.882 36.3601 18.1432C36.936 18.3555 37.493 18.6185 38.0531 18.8729C38.5861 19.1159 39.1029 19.397 39.6001 19.7144C39.7459 19.8071 39.88 19.921 40.0177 20.0278C40.0665 20.0656 40.1103 20.1111 40.0574 20.1817C39.8716 20.3569 39.68 20.5246 39.5153 20.7243C39.4056 20.8573 39.3086 20.9999 39.2046 21.1378Z" fill="#FF9400"/>
<path d="M27.7273 16.2503L27.7282 16.5921C26.7527 16.5068 24.9342 16.5068 24.0163 16.5618C23.9466 16.5582 23.8771 16.5506 23.8081 16.5389C23.7569 16.5266 23.6779 16.4563 23.6792 16.4124C23.6816 16.3317 23.7252 16.2927 23.7818 16.2628C23.8525 16.2251 23.947 16.2181 24.0266 16.2181C24.9048 16.2181 25.7833 16.204 26.661 16.2265C27.0161 16.2355 27.3719 16.2411 27.7273 16.2503Z" fill="#FF9400"/>
<path d="M42.7813 20.3955C42.7862 20.7307 42.7227 21.0391 42.6326 21.3421C42.4734 21.8781 42.2137 22.3566 41.8835 22.7931C41.8166 22.8817 41.813 22.882 41.743 22.7945C41.4219 22.3929 41.1649 21.9476 40.9447 21.4767C40.7791 21.123 40.6436 20.7564 40.5223 20.3837C40.4848 20.2682 40.4892 20.2475 40.5979 20.1883C40.9781 19.9807 41.3766 19.8333 41.8016 19.7688C41.9952 19.7393 42.1906 19.7398 42.3841 19.7145C42.4036 19.7127 42.4232 19.7123 42.4427 19.7133C42.6269 19.7169 42.6558 19.7418 42.7249 19.9202C42.7863 20.0792 42.7851 20.244 42.7813 20.3955Z" fill="#FEFEFE"/>
<path d="M30.1395 13.558C30.1395 14.5486 30.1503 16.7214 30.173 17.3309C30.1187 17.4044 30.048 17.3776 29.9843 17.3583C29.2975 17.145 28.606 17.1766 27.9124 17.3116C27.8538 17.3228 27.7969 17.3382 27.7476 17.2873L27.7439 17.2922C27.7118 17.2455 27.7439 12.4046 27.7398 12.0947C27.7379 11.9616 27.7589 11.841 27.8211 11.7241C27.8976 11.5804 27.9643 11.431 28.0353 11.2839C28.0452 11.2732 28.0583 11.2665 28.0724 11.2652C28.872 11.6284 29.5326 12.05 30.1346 12.7049C30.1258 12.9416 30.1346 13.2585 30.1395 13.558Z" fill="#414141"/>
<path d="M28.0753 11.2082H28.0635L28.0518 11.2059C28.1095 11.0593 28.1129 10.9056 28.1123 10.7495C28.1105 10.2832 28.1177 9.81679 28.1134 9.35068C28.112 9.18067 28.1602 9.04291 28.2599 8.90998C28.7523 8.25398 29.2871 7.63547 29.8607 7.05897C30.2252 6.69245 30.6122 6.35195 31.0373 6.06459C31.1182 6.08516 31.0836 6.1411 31.0653 6.18411C30.8045 6.79561 30.8414 7.43687 30.9233 8.0733C30.9594 8.3538 31.0325 8.64288 31.2518 8.84889C31.2674 8.86189 31.2779 8.88062 31.2812 8.90141C31.2844 8.9222 31.2803 8.94355 31.2695 8.96125C30.7743 9.20607 30.3856 9.58631 30.0573 10.0427C30.0088 10.1101 29.9729 10.1813 29.9849 10.2701C29.9631 10.8257 29.968 11.3807 29.9861 12.2949C29.9854 12.3047 29.9841 12.3145 29.9823 12.3242C29.9091 12.377 29.8613 12.3173 29.8162 12.2765C29.6206 12.0995 29.4306 11.9157 29.2197 11.7579C28.9893 11.585 28.753 11.4238 28.4974 11.2953C28.3629 11.228 28.226 11.1825 28.0753 11.2082Z" fill="#A19D98"/>
<path d="M31.3566 5.99635C31.4554 6.04886 31.5058 6.1366 31.5308 6.24927C31.5946 6.53575 31.6367 6.82721 31.6567 7.12085C31.6911 7.62296 31.6227 8.10885 31.5047 8.59085C31.4801 8.6912 31.4519 8.79016 31.3893 8.87306C31.3269 8.88428 31.3077 8.83629 31.2825 8.79032C30.9915 8.25861 30.9388 7.67843 30.9748 7.0808C30.9796 6.99884 30.992 6.91687 30.9971 6.83427C31.0136 6.51681 31.142 6.21763 31.3566 5.99635V5.99635Z" fill="#A19D98"/>
<path d="M30.4579 17.391C30.6097 17.4619 30.6843 17.566 30.6904 17.7592C30.7212 18.7332 30.7129 19.7072 30.7151 20.681C30.7151 20.7433 30.7213 21.003 30.7209 21.0751C30.7186 21.4792 30.7121 21.8834 30.7174 22.2873C30.7193 22.4295 30.6638 22.5107 30.5483 22.5619C29.5837 22.8424 28.3309 22.8286 27.4524 22.5308C27.2545 22.4667 27.2017 22.3882 27.2001 22.1708C27.1981 21.8859 27.2001 21.6009 27.2001 21.3159C27.2001 21.1968 27.2022 21.0776 27.2001 20.9584C27.1981 20.8392 27.2294 18.9922 27.2294 18.9353C27.2294 18.5001 27.2325 18.0647 27.2284 17.6294C27.2271 17.4926 27.2744 17.4103 27.3945 17.3531C28.7898 16.8844 29.522 17.0207 30.4579 17.391Z" fill="#A19D98"/>
<path d="M27.4902 19.9555V17.8547C27.4902 17.8184 27.4892 17.7821 27.4902 17.7456C27.4933 17.6013 27.5049 17.582 27.6354 17.5313C28.1259 17.3311 29.5602 17.1417 30.3259 17.6791C30.4468 17.7467 30.4661 17.8157 30.4714 17.9792C30.491 18.3471 30.4567 21.0803 30.4579 22.1331C30.4579 22.154 30.4579 22.1748 30.4579 22.1955C30.4544 22.3456 30.4449 22.3527 30.3016 22.3844C29.4086 22.5818 28.5206 22.5558 27.6364 22.322C27.5054 22.2876 27.4986 22.2842 27.4983 22.1333C27.4971 21.6508 27.4971 21.1684 27.4983 20.6861C27.4983 20.4422 27.4983 20.1984 27.4983 19.9546L27.4902 19.9555Z" fill="#45423D"/>
<path d="M28.0423 11.238C28.0593 11.1048 28.1359 11.0909 28.2833 11.1277C28.4605 11.1837 28.6299 11.2642 28.7873 11.3672C29.1379 11.5897 29.4736 11.8347 29.7682 12.1386C29.834 12.2065 29.9103 12.2632 29.9818 12.3245C29.9918 12.3693 30.0145 12.4097 30.0469 12.4403C30.1399 12.5293 30.1525 12.6321 30.1336 12.7619C29.979 12.7385 29.8921 12.6404 29.7941 12.5254C29.5281 12.2137 29.2172 11.9614 28.8875 11.7317C28.6845 11.5902 28.3736 11.4356 28.148 11.3399C28.0706 11.3072 28.0334 11.3092 28.0423 11.238Z" fill="#DCF9FB"/>
<path d="M31.3566 5.99634C31.4086 6.02657 31.4422 6.04044 31.308 6.16667C31.1384 6.32842 31.0261 6.73625 31.0375 7.40509C31.0485 7.84844 31.0539 8.24317 31.3891 8.87306C31.3608 8.91981 31.3238 8.95425 31.2693 8.96126C30.7017 8.36768 30.7565 6.54114 31.0369 6.06459C31.1531 5.93665 31.2211 5.92216 31.3566 5.99634Z" fill="#DCF9FB"/>
</g>
<defs>
<clipPath id="clip0_8_1960">
<rect width="43.8974" height="38.4103" fill="white" transform="translate(0.717773 0.461527)"/>
</clipPath>
</defs>
</svg>
